<svg width="61" height="6" viewBox="0 0 61 6" fill="none" xmlns="http://www.w3.org/2000/svg">
<path d="M5.05503 4.65841H1.88078L1.27352 6H0L2.88016 0H4.1103L7 6H5.66402L5.05503 4.65841ZM4.62127 3.7327L3.46573 1.19155L2.30933 3.7327H4.62127Z" fill="white"/>
<path d="M10 5.99709L11.5364 3.65429H11.4518L10.3357 2.68486V0.961426L11.4518 0H16V5.99563H14.7909V3.65429H12.8681L11.352 6L10 5.99709ZM14.7934 0.935952H12.0175L11.5465 1.33261V2.3115L12.0175 2.71688H14.7934V0.935952Z" fill="white"/>
<path d="M18.6505 5.99709L17.1344 3.65372H15.2091V6H14V0H18.5482L19.6643 0.960204V2.67969L18.5482 3.65372H18.4636L20 6L18.6505 5.99709ZM15.2091 2.71609H17.9842L18.456 2.3106V1.33147L17.9842 0.934724H15.2091V2.71609Z" fill="white"/>
<path d="M25.6379 0.935178V5.06482H27V6H23V5.06482H24.3495V0.935178H23V0H27V0.935178H25.6379Z" fill="white"/>
<path d="M36 0L33.5148 6H32.475L30 0H31.1903L33.0234 4.59723L34.8565 0H36Z" fill="white"/>
<path d="M42.334 4.65841H39.6147L39.0943 6H38L40.4674 0H41.5237L44 6H42.8566L42.334 4.65841ZM41.9623 3.7327L40.9736 1.19155L39.9827 3.7327H41.9623Z" fill="white"/>
<path d="M53 5.06482V6H48V0H49.1997V5.06482H53Z" fill="white"/>
<path d="M61 3.49381V5.00291L59.813 6H56.1471L55 5.03933L55.8402 4.34232L56.7228 5.07502H59.2225L59.7584 4.62491V3.86453L59.3249 3.51202L56.2581 3.33503L55.1864 2.43554V0.997087L56.3734 0H59.7766L60.8691 0.926439L60.0393 1.62345L59.1991 0.926439H56.9665L56.4306 1.37655V2.06482L56.8642 2.42899L59.9205 2.5965L61 3.49381Z" fill="white"/>
</svg>
