<svg width="47" height="15" viewBox="0 0 47 15" fill="none" xmlns="http://www.w3.org/2000/svg">
<path d="M4.25586 12.8344C4.25586 11.8498 4.98706 11.1775 5.91676 11.1775C6.48829 11.1775 6.88526 11.4512 7.14186 11.8113L6.80275 11.9987C6.61891 11.7297 6.28468 11.5328 5.91676 11.5328C5.20972 11.5328 4.67236 12.0706 4.67236 12.8344C4.67236 13.5933 5.20972 14.136 5.91676 14.136C6.28468 14.136 6.61891 13.9439 6.80275 13.6701L7.14674 13.8572C6.8755 14.2224 6.48829 14.4912 5.91676 14.4912C4.98706 14.4912 4.25586 13.819 4.25586 12.8344Z" fill="white"/>
<path d="M12.2488 11.6432L11.5613 13.3674H12.9314L12.2488 11.6432ZM13.3382 14.4336L13.0525 13.7229H11.4448L11.1592 14.4336H10.6992L11.9971 11.2301H12.4956L13.7984 14.4336H13.3382Z" fill="white"/>
<path d="M19.5027 12.1956C19.5027 11.8355 19.2412 11.5856 18.8587 11.5856H18.0115V12.8056H18.8587C19.2412 12.8056 19.5027 12.5557 19.5027 12.1956ZM17.6094 14.4336V11.2301H18.9072C19.5559 11.2301 19.9192 11.672 19.9192 12.1956C19.9192 12.7191 19.5462 13.1608 18.9072 13.1608H18.0115V14.4336H17.6094Z" fill="white"/>
<path d="M23.8379 11.2296H24.24V14.4331H23.8379V11.2296Z" fill="white"/>
<path d="M29.1819 14.4336V11.5856H28.1602V11.2301H30.6104V11.5856H29.5837V14.4336H29.1819Z" fill="white"/>
<path d="M35.4226 11.6432L34.7349 13.3674H36.1052L35.4226 11.6432ZM36.512 14.4336L36.2261 13.7229H34.6187L34.333 14.4336H33.873L35.1707 11.2301H35.6694L36.9722 14.4336H36.512Z" fill="white"/>
<path d="M40.7793 14.4336V11.2301H41.1812V14.0781H42.6824V14.4336H40.7793Z" fill="white"/>
<path d="M28.8574 6.65674H30.2859V-0.000113487H28.8574V6.65674Z" fill="white"/>
<path d="M0 6.65674H1.42893V3.88436H0V6.65674Z" fill="white"/>
<path d="M4.57851 4.18174L1.46915 -0.00011158H0V0.385338L1.42894 2.32273V2.31535L4.62871 6.65674H6.00721V-0.00011158H4.57851V4.18174Z" fill="white"/>
<path d="M18.2422 6.65674H19.6709V3.88436H18.2422V6.65674Z" fill="white"/>
<path d="M21.875 4.02199L20.2448 -0.000111103H18.8633L20.795 4.76407L21.5631 6.65674H22.1867L24.0789 1.99607V6.65674H25.5176V-0.000111103H23.5052L21.875 4.02199Z" fill="white"/>
<path d="M11.6071 -0.000111103L13.1709 4.28133H11.0779H9.55902L8.63281 6.65674H10.2626L10.6856 5.52897H13.5632L13.9758 6.65674H15.6057L13.0198 -0.000111103H11.6071Z" fill="white"/>
<path d="M35.0557 3.90234H38.3054V2.6547H35.0557V2.65124H33.627V6.65674H38.3758V5.40933H35.0557V3.90234Z" fill="white"/>
<path d="M33.627 1.24597H37.3462V1.24805H38.3761V0.000636816H33.627V1.24597Z" fill="white"/>
<path d="M45.4303 4.12181C46.1546 3.95213 46.8992 3.32347 46.8992 2.14568C46.8992 0.908185 46.0442 -0.000111103 44.6452 -0.000111103H41.5059V1.24753H42.935H43.4175H44.4342C45.0078 1.24753 45.4403 1.58664 45.4403 2.14568C45.4403 2.70449 45.0078 3.04407 44.4342 3.04407H43.4175H42.935H41.5059V6.65674H42.935V4.29148H43.9814L45.2995 6.65674H46.9397L45.4303 4.12181Z" fill="white"/>
</svg>
