<svg width="46" height="6" viewBox="0 0 46 6" fill="none" xmlns="http://www.w3.org/2000/svg">
<path d="M0.0352117 1.70181C0.021127 1.42716 0.0140847 1.14546 0 0.86377C0.0563387 0.870812 0.112677 0.877858 0.161974 0.8849C0.21127 0.891942 0.267609 0.891941 0.316905 0.891941C0.366201 0.891941 0.42254 0.891942 0.471836 0.8849C0.521133 0.877858 0.577471 0.870812 0.63381 0.86377C0.619725 1.15251 0.605641 1.42716 0.598598 1.70181C0.584514 1.97646 0.584514 2.25816 0.584514 2.53985C0.584514 3.08211 0.584514 3.56098 0.591556 3.9624C0.598598 4.36381 0.598598 4.72297 0.605641 5.03988C0.915503 5.03988 1.20424 5.03987 1.48593 5.03283C1.76763 5.02579 2.07045 5.00466 2.39439 4.95536C2.37327 5.03283 2.35918 5.09621 2.35918 5.15255C2.35918 5.20185 2.37327 5.25819 2.39439 5.32861C2.19721 5.32157 1.99298 5.31452 1.7958 5.31452C1.59861 5.31452 1.39438 5.31452 1.1972 5.31452C0.985927 5.31452 0.788741 5.31452 0.598598 5.31452C0.408455 5.31452 0.204228 5.32157 0 5.32861C0.0140847 5.061 0.0281693 4.78635 0.0352117 4.5117C0.0492963 4.23705 0.0492961 3.95536 0.0492961 3.66662V2.54689C0.0492961 2.25815 0.042254 1.97646 0.0352117 1.70181Z" fill="white"/>
<path d="M9.21791 2.96935C9.21791 2.35667 9.21791 1.87778 9.21087 1.54679C9.20382 1.2158 9.19678 0.983412 9.17565 0.85665C9.22495 0.863692 9.26721 0.87073 9.30946 0.877772C9.35171 0.884814 9.39397 0.884821 9.43622 0.884821C9.49256 0.884821 9.55594 0.870736 9.63341 0.849609C9.61932 1.00454 9.60524 1.1806 9.59115 1.39187C9.57707 1.60314 9.57003 1.82849 9.55594 2.06793C9.5489 2.30737 9.54186 2.55385 9.52777 2.80737C9.52073 3.0609 9.51369 3.30738 9.50664 3.54682C9.4996 3.83555 9.45735 4.09612 9.37284 4.32852C9.28833 4.56091 9.16861 4.75106 9.01368 4.91303C8.85875 5.07501 8.66861 5.19472 8.43621 5.27923C8.21086 5.36374 7.95029 5.406 7.65451 5.406C7.00662 5.406 6.53478 5.2581 6.239 4.96233C5.94322 4.66655 5.79533 4.20176 5.79533 3.56795C5.79533 3.36372 5.80238 3.18062 5.80942 3.02568C5.8235 2.87075 5.8235 2.70879 5.8235 2.53977C5.8235 2.17357 5.81646 1.85666 5.80942 1.57496C5.80238 1.29327 5.79533 1.05383 5.78125 0.863691C5.83055 0.870733 5.88689 0.877779 5.95027 0.884821C6.01365 0.891863 6.06999 0.891862 6.11928 0.891862C6.16858 0.891862 6.21083 0.891863 6.26013 0.884821C6.30238 0.877779 6.35168 0.870733 6.40098 0.863691C6.39393 0.962283 6.38689 1.08201 6.37281 1.23694C6.36576 1.39187 6.35872 1.56792 6.34464 1.75806C6.33759 1.95525 6.33055 2.16652 6.32351 2.38483C6.31647 2.61019 6.31647 2.84258 6.31647 3.08907C6.31647 3.23696 6.31647 3.39189 6.32351 3.54682C6.33055 3.70175 6.34464 3.85668 6.36576 4.00457C6.39393 4.15246 6.43619 4.30035 6.49253 4.43415C6.54886 4.56796 6.63337 4.68768 6.74605 4.79332C6.85168 4.89191 6.99253 4.97641 7.15451 5.03275C7.31648 5.08909 7.52071 5.11726 7.76719 5.11726C8.00663 5.11726 8.20381 5.08205 8.36579 5.01163C8.52776 4.9412 8.66156 4.84965 8.7672 4.73697C8.87283 4.6243 8.9503 4.49754 9.01368 4.34965C9.07002 4.20176 9.11227 4.04683 9.14044 3.89189C9.16861 3.72992 9.1827 3.56794 9.1827 3.41301C9.21791 3.25104 9.21791 3.10315 9.21791 2.96935Z" fill="white"/>
<path d="M14.8584 2.63836C15.0555 2.34258 15.2457 2.05385 15.4147 1.77919C15.5837 1.4975 15.7598 1.19468 15.9429 0.85665C16.0415 0.877777 16.1189 0.891862 16.1823 0.891862C16.2457 0.891862 16.3302 0.877777 16.4218 0.85665C16.1753 1.20172 15.9288 1.53271 15.6964 1.8637C15.4569 2.19469 15.2316 2.53272 15.0062 2.88484C15.2527 3.30738 15.4992 3.71583 15.7527 4.11725C15.9992 4.51866 16.2527 4.92008 16.5133 5.32149C16.4499 5.31445 16.3936 5.3074 16.3302 5.3074C16.2668 5.3074 16.2105 5.3074 16.1471 5.3074C16.0837 5.3074 16.0274 5.3074 15.964 5.3074C15.9006 5.3074 15.8443 5.31445 15.7809 5.32149C15.6048 5.00459 15.4358 4.68063 15.2668 4.35669C15.0978 4.03274 14.9006 3.70175 14.6823 3.37076C14.464 3.70175 14.2527 4.0257 14.0626 4.35669C13.8724 4.68063 13.6823 5.00459 13.5062 5.32149C13.464 5.31445 13.4217 5.3074 13.3795 5.3074C13.3372 5.3074 13.302 5.3074 13.2668 5.3074C13.2316 5.3074 13.1964 5.3074 13.1541 5.3074C13.1119 5.3074 13.0696 5.31445 13.0273 5.32149C13.2879 4.96233 13.5414 4.59613 13.7879 4.22993C14.0344 3.86373 14.2809 3.49049 14.5274 3.10316C14.302 2.72287 14.0767 2.34963 13.8513 1.97638C13.6259 1.61018 13.3935 1.23694 13.1541 0.849609C13.2175 0.856652 13.2738 0.863689 13.3302 0.870731C13.3865 0.877774 13.4428 0.877772 13.5062 0.877772C13.5696 0.877772 13.6259 0.877774 13.6823 0.870731C13.7386 0.863689 13.795 0.856652 13.8583 0.849609C13.9992 1.13835 14.1541 1.42708 14.3231 1.70877C14.4781 2.00455 14.6541 2.30737 14.8584 2.63836Z" fill="white"/>
<path d="M21.0064 3.4983C20.9641 3.42787 20.9008 3.3152 20.8163 3.17435C20.7317 3.0335 20.6402 2.87857 20.5346 2.70955C20.436 2.54053 20.3233 2.35744 20.2106 2.16729C20.0979 1.97715 19.9923 1.8011 19.8867 1.62504C19.7881 1.45602 19.6895 1.30109 19.612 1.16729C19.5275 1.03348 19.4641 0.927845 19.4219 0.857422C19.4853 0.864464 19.5416 0.871501 19.5979 0.878544C19.6543 0.885586 19.7177 0.885593 19.774 0.885593C19.8374 0.885593 19.8937 0.885586 19.9501 0.878544C20.0064 0.871501 20.0698 0.864464 20.1261 0.857422C20.3233 1.23771 20.5205 1.6039 20.7177 1.97011C20.9219 2.33631 21.1332 2.70956 21.3585 3.10393C21.4571 2.949 21.5627 2.77998 21.6684 2.58983C21.774 2.40673 21.8867 2.20955 21.9923 2.01941C22.098 1.82222 22.2036 1.63208 22.3022 1.43489C22.4008 1.2377 22.4923 1.04756 22.5839 0.857422C22.6895 0.878549 22.774 0.892634 22.8374 0.892634C22.9008 0.892634 22.9853 0.878549 23.0909 0.857422C22.8797 1.17433 22.6966 1.46306 22.5346 1.71658C22.3726 1.97011 22.2247 2.20251 22.098 2.41378C21.9712 2.62505 21.8585 2.80815 21.767 2.97716C21.6684 3.14618 21.5909 3.29407 21.5205 3.42787C21.5205 3.58985 21.5205 3.75886 21.5205 3.94196C21.5205 4.12506 21.5275 4.30113 21.5275 4.47718C21.5346 4.65324 21.5346 4.81521 21.5416 4.9631C21.5487 5.11099 21.5557 5.23071 21.5627 5.32226C21.4642 5.31522 21.3585 5.30817 21.2458 5.30817C21.1332 5.30817 21.0275 5.31522 20.9289 5.32226C20.9571 5.09691 20.9712 4.82225 20.9712 4.50535C21.0064 4.1814 21.0064 3.85041 21.0064 3.4983Z" fill="white"/>
<path d="M26.4083 1.70181C26.3942 1.42716 26.3871 1.14546 26.373 0.86377C26.4294 0.870812 26.4857 0.877858 26.535 0.8849C26.5843 0.891942 26.6407 0.891941 26.69 0.891941C26.7392 0.891941 26.7956 0.891942 26.8449 0.8849C26.8942 0.877858 26.9505 0.870812 27.0069 0.86377C26.9928 1.15251 26.9787 1.42716 26.9716 1.70181C26.9576 1.97646 26.9576 2.25816 26.9576 2.53985C26.9576 3.08211 26.9576 3.56098 26.9646 3.9624C26.9716 4.36381 26.9716 4.72297 26.9787 5.03988C27.2886 5.03988 27.5773 5.03987 27.859 5.03283C28.1407 5.02579 28.4435 5.00466 28.7674 4.95536C28.7463 5.03283 28.7322 5.09621 28.7322 5.15255C28.7322 5.20185 28.7463 5.25819 28.7674 5.32861C28.5703 5.32157 28.366 5.31452 28.1688 5.31452C27.9717 5.31452 27.7674 5.31452 27.5702 5.31452C27.359 5.31452 27.1618 5.31452 26.9716 5.31452C26.7815 5.31452 26.5773 5.32157 26.373 5.32861C26.3871 5.061 26.4012 4.78635 26.4083 4.5117C26.4223 4.23705 26.4223 3.95536 26.4223 3.66662V2.54689C26.4294 2.25815 26.4223 1.97646 26.4083 1.70181Z" fill="white"/>
<path d="M32.1973 1.70181C32.1832 1.42716 32.1762 1.14546 32.1621 0.86377C32.2184 0.870812 32.2748 0.877858 32.3241 0.8849C32.3734 0.891942 32.4297 0.891941 32.479 0.891941C32.5283 0.891941 32.5846 0.891942 32.6339 0.8849C32.6832 0.877858 32.7396 0.870812 32.7959 0.86377C32.7818 1.15251 32.7678 1.42716 32.7607 1.70181C32.7466 1.97646 32.7466 2.25816 32.7466 2.53985V3.65957C32.7466 3.94831 32.7537 4.23 32.7607 4.50465C32.7748 4.7793 32.7818 5.05396 32.7959 5.32157C32.6973 5.31453 32.5917 5.30748 32.479 5.30748C32.3663 5.30748 32.2607 5.31453 32.1621 5.32157C32.1762 5.05396 32.1903 4.7793 32.1973 4.50465C32.2114 4.23 32.2114 3.94831 32.2114 3.65957V2.53985C32.2114 2.25816 32.2044 1.97646 32.1973 1.70181Z" fill="white"/>
<path d="M36.549 4.71617C36.6053 4.79363 36.6757 4.87111 36.7602 4.93449C36.8448 4.99787 36.9433 5.0542 37.056 5.09646C37.1687 5.13871 37.2955 5.15984 37.4363 5.15984C37.5772 5.15984 37.711 5.13167 37.8236 5.08238C37.9363 5.03308 38.0349 4.96265 38.1194 4.87815C38.2039 4.79364 38.2603 4.69505 38.3025 4.58237C38.3448 4.46969 38.3659 4.34293 38.3659 4.21616C38.3659 4.01898 38.3166 3.85701 38.211 3.74433C38.1124 3.62461 37.9856 3.53306 37.8307 3.44855C37.6757 3.37108 37.5138 3.30066 37.3377 3.23728C37.1617 3.1739 36.9997 3.08939 36.8447 2.9908C36.6898 2.8922 36.5631 2.76545 36.4645 2.61756C36.3659 2.46263 36.3095 2.26544 36.3095 2.00487C36.3095 1.82177 36.3447 1.6598 36.4081 1.50487C36.4715 1.35698 36.5701 1.22317 36.6898 1.11754C36.8166 1.0119 36.9645 0.927396 37.1335 0.864015C37.3095 0.800634 37.4997 0.772461 37.718 0.772461C37.9293 0.772461 38.1053 0.800637 38.2603 0.849933C38.4152 0.89923 38.556 0.97669 38.6828 1.08233C38.6405 1.15275 38.6124 1.23726 38.5842 1.31473C38.556 1.39923 38.5349 1.49783 38.5067 1.62459H38.4293C38.4081 1.56121 38.38 1.49782 38.3448 1.4274C38.3096 1.35698 38.2603 1.28655 38.1969 1.23021C38.1335 1.16683 38.056 1.11754 37.9715 1.07528C37.887 1.03303 37.7814 1.0119 37.6617 1.0119C37.5419 1.0119 37.4293 1.03303 37.3236 1.06824C37.225 1.1105 37.1335 1.1598 37.056 1.23726C36.9786 1.30769 36.9222 1.39219 36.88 1.49078C36.8377 1.58938 36.8166 1.70205 36.8166 1.81473C36.8166 2.01896 36.8659 2.18093 36.9715 2.29361C37.0701 2.41333 37.1969 2.51192 37.3518 2.58939C37.5067 2.66685 37.6687 2.74432 37.8448 2.80066C38.0208 2.86404 38.1828 2.94151 38.3377 3.03306C38.4927 3.12461 38.6194 3.24433 38.718 3.38517C38.8166 3.52602 38.8729 3.71616 38.8729 3.9556C38.8729 4.15279 38.8377 4.34293 38.7673 4.51899C38.6969 4.69505 38.5912 4.84998 38.4574 4.98378C38.3236 5.11759 38.1546 5.21618 37.9574 5.2866C37.7603 5.35703 37.5349 5.39224 37.2884 5.39224C37.0208 5.39224 36.8025 5.35703 36.6335 5.2866C36.4645 5.21618 36.3236 5.13167 36.2109 5.04012C36.2532 4.94153 36.2743 4.84998 36.2954 4.77251C36.3095 4.69504 36.3236 4.58941 36.3377 4.46265H36.4152C36.4433 4.5542 36.4856 4.6387 36.549 4.71617Z" fill="white"/>
<path d="M43.2186 1.19468C43.1059 1.19468 42.9862 1.19468 42.8665 1.19468C42.7397 1.19468 42.62 1.20172 42.4932 1.20877C42.3665 1.21581 42.2538 1.22285 42.1341 1.22989C42.0214 1.23693 41.9158 1.25102 41.8242 1.2651C41.8453 1.18763 41.8594 1.11721 41.8594 1.05383C41.8594 1.00453 41.8453 0.94116 41.8242 0.849609C42.113 0.856652 42.3876 0.863689 42.6623 0.870731C42.9369 0.877774 43.2116 0.877772 43.5003 0.877772C43.789 0.877772 44.0637 0.877774 44.3383 0.870731C44.613 0.863689 44.8876 0.856652 45.1764 0.849609C45.1552 0.934117 45.1412 1.00454 45.1412 1.06088C45.1412 1.11722 45.1552 1.18763 45.1764 1.2651C45.0848 1.25102 44.9792 1.24397 44.8665 1.22989C44.7538 1.22285 44.6341 1.21581 44.5074 1.20877C44.3806 1.20172 44.2609 1.19468 44.1341 1.19468C44.0073 1.19468 43.8947 1.19468 43.782 1.19468C43.7679 1.63834 43.7609 2.08906 43.7609 2.53977V3.65949C43.7609 3.94823 43.7679 4.22992 43.7749 4.50457C43.789 4.77923 43.7961 5.05388 43.8102 5.32149C43.7116 5.31445 43.6059 5.3074 43.4933 5.3074C43.3806 5.3074 43.2749 5.31445 43.1763 5.32149C43.1904 5.05388 43.2045 4.77923 43.2116 4.50457C43.2256 4.22992 43.2256 3.94823 43.2256 3.65949V2.53977C43.2397 2.08906 43.2327 1.64539 43.2186 1.19468Z" fill="white"/>
</svg>
