<svg width="46" height="12" viewBox="0 0 46 12" fill="none" xmlns="http://www.w3.org/2000/svg">
<path d="M8.63281 7.16906C8.63281 8.82027 9.70716 9.81523 11.4536 9.81523C12.1681 9.81523 12.7873 9.65116 13.1736 9.37596C13.4965 9.17485 13.6817 8.91024 13.6817 8.60857C13.6817 8.24869 13.4541 8.02641 13.1101 8.02641C12.8455 8.02641 12.7344 8.12697 12.4751 8.29103C12.2581 8.4498 11.9829 8.53977 11.5754 8.53977C10.8185 8.53977 10.374 8.08992 10.3634 7.42309V7.21669H13.0043C13.6129 7.21669 13.8405 6.98382 13.8405 6.33816C13.8405 4.93569 12.782 3.88781 11.2843 3.88781C9.69128 3.88781 8.63281 4.94627 8.63281 6.54456V7.16906ZM10.3634 6.2429V6.22702C10.3634 5.59194 10.7233 5.15797 11.3213 5.15797C11.877 5.15797 12.2369 5.58135 12.2369 6.22702V6.2429H10.3634Z" fill="white"/>
<path d="M20.0854 8.80439V5.94123C20.0854 4.66578 19.408 3.94073 18.2172 3.94073C17.4128 3.94073 16.7618 4.35882 16.5554 5.00449H16.4708V4.79809C16.4443 4.26356 16.1532 3.97778 15.6505 3.97778C15.1371 3.97778 14.8196 4.31649 14.8196 4.87747V8.7991C14.8196 9.39713 15.1265 9.73055 15.6716 9.73055C16.2167 9.73055 16.5184 9.39713 16.5184 8.7991V6.54985C16.5184 5.80363 16.9047 5.34849 17.5028 5.34849C18.0585 5.34849 18.3813 5.73483 18.3813 6.38579V8.7991C18.3813 9.39713 18.683 9.73055 19.2334 9.73055C19.7785 9.73055 20.0854 9.40772 20.0854 8.80439Z" fill="white"/>
<path d="M21.6943 8.15872C21.6943 9.30187 22.2341 9.80993 23.409 9.80993C23.8377 9.80993 24.1711 9.72526 24.3987 9.56649C24.6104 9.42359 24.7215 9.22248 24.7215 8.97904C24.7215 8.68266 24.5363 8.49743 24.2717 8.49743C24.1235 8.49743 24.0335 8.52389 23.8853 8.52389C23.5255 8.52389 23.3984 8.35454 23.3984 7.8994V5.38554H23.8218C24.2717 5.38554 24.5257 5.14738 24.5257 4.73987C24.5257 4.33236 24.2717 4.09421 23.8218 4.09421H23.3773V3.4803C23.3773 2.89814 23.0862 2.57531 22.557 2.57531C22.033 2.57531 21.7366 2.89814 21.7366 3.4803V4.09421H21.4879C21.0381 4.09421 20.784 4.33236 20.784 4.73987C20.784 5.14738 21.0381 5.38554 21.4879 5.38554H21.6943V8.15872Z" fill="white"/>
<path d="M28.5267 8.98433H28.6061V9.09547C28.6749 9.50298 28.9713 9.73055 29.4052 9.73055C29.9345 9.73055 30.2308 9.41301 30.2308 8.83085V5.94123C30.2308 4.66578 29.347 3.94073 27.7911 3.94073C27.1348 3.94073 26.6321 4.05187 26.2563 4.23181C25.7324 4.48055 25.4995 4.82455 25.4995 5.16855C25.4995 5.49668 25.7218 5.74012 26.0869 5.74012C26.3516 5.74012 26.5262 5.67662 26.7009 5.56548C27.0025 5.34849 27.2883 5.18972 27.6799 5.18972C28.2198 5.18972 28.532 5.44375 28.532 5.92006V6.32757H27.283C25.9758 6.33287 25.1872 6.97853 25.1872 8.03171C25.1872 9.05313 25.9335 9.74113 27.0396 9.74113C27.7117 9.74113 28.2621 9.46064 28.5267 8.98433ZM26.8596 7.90998C26.8596 7.51306 27.1666 7.26961 27.6641 7.26961H28.532V7.82001C28.532 8.24869 28.1404 8.58211 27.6429 8.58211C27.1825 8.58211 26.8596 8.30691 26.8596 7.90998Z" fill="white"/>
<path d="M31.1623 7.14789C31.1623 8.85731 32.1784 9.81523 33.8296 9.81523C34.4436 9.81523 34.9992 9.67233 35.4226 9.40772C35.8301 9.15368 36.0895 8.7938 36.0895 8.43922C36.0895 8.04758 35.8407 7.79355 35.4544 7.79355C35.1739 7.79355 35.0151 7.94174 34.8564 8.06875C34.6076 8.3122 34.3271 8.46039 33.9567 8.46039C33.1787 8.46039 32.9141 7.8994 32.9141 7.06321V6.56573C32.9141 5.77188 33.2475 5.24264 33.9408 5.24264C34.3059 5.24264 34.5706 5.38554 34.7928 5.61311C34.9569 5.75071 35.1263 5.90419 35.412 5.90419C35.809 5.90419 36.0736 5.61311 36.0736 5.23735C36.0736 4.89335 35.8301 4.57052 35.4967 4.34295C35.068 4.04658 34.4647 3.88781 33.8296 3.88781C32.1202 3.88781 31.1623 4.94627 31.1623 6.47576V7.14789Z" fill="white"/>
<path d="M38.0582 9.73055C38.598 9.73055 38.9103 9.40772 38.9103 8.7991V2.96165C38.9103 2.34774 38.598 2.0249 38.0582 2.0249C37.5184 2.0249 37.2114 2.34774 37.2114 2.96165V8.7991C37.2114 9.40772 37.5184 9.73055 38.0582 9.73055Z" fill="white"/>
<path d="M39.9635 7.16906C39.9635 8.82027 41.0378 9.81523 42.7843 9.81523C43.4987 9.81523 44.1179 9.65116 44.5043 9.37596C44.8271 9.17485 45.0124 8.91024 45.0124 8.60857C45.0124 8.24869 44.7848 8.02641 44.4408 8.02641C44.1762 8.02641 44.065 8.12697 43.8057 8.29103C43.5887 8.4498 43.3135 8.53977 42.906 8.53977C42.1492 8.53977 41.7046 8.08992 41.6941 7.42309V7.21669H44.3349C44.9436 7.21669 45.1711 6.98382 45.1711 6.33816C45.1711 4.93569 44.1127 3.88781 42.6149 3.88781C41.0219 3.88781 39.9635 4.94627 39.9635 6.54456V7.16906ZM41.6941 6.2429V6.22702C41.6941 5.59194 42.0539 5.15797 42.652 5.15797C43.2077 5.15797 43.5675 5.58135 43.5675 6.22702V6.2429H41.6941Z" fill="white"/>
<path d="M0 10.9802C0 11.578 0.443388 12 1.09073 12H7.98985C8.53078 12 8.90323 11.6659 8.90323 11.1648C8.90323 10.6549 8.53965 10.3121 7.99871 10.3121H2.4475V10.2066L7.68834 2.76044C8.46871 1.68791 8.64606 1.37143 8.64606 0.975824C8.64606 0.378022 8.23814 0 7.5908 0H1.0996C0.549801 0 0.186223 0.325275 0.186223 0.843956C0.186223 1.35385 0.540933 1.68791 1.09073 1.68791H6.2695V1.8022L0.939982 9.25714C0.15962 10.3209 0 10.6022 0 10.9802Z" fill="white"/>
</svg>
